<svg width="166" height="166" viewBox="0 0 166 166" fill="none" xmlns="http://www.w3.org/2000/svg">
<g clip-path="url(#clip0_36_25)">
<path fill-rule="evenodd" clip-rule="evenodd" d="M166 83C166 105.013 157.255 126.124 141.69 141.69C126.124 157.255 105.013 166 83 166C60.987 166 39.8757 157.255 24.3101 141.69C8.74462 126.124 0 105.013 0 83C0 60.987 8.74462 39.8757 24.3101 24.3101C39.8757 8.74462 60.987 0 83 0C105.013 0 126.124 8.74462 141.69 24.3101C157.255 39.8757 166 60.987 166 83ZM91.8929 38.5357C91.8929 36.1772 90.9559 33.9152 89.2882 32.2475C87.6205 30.5798 85.3585 29.6429 83 29.6429C80.6415 29.6429 78.3795 30.5798 76.7118 32.2475C75.0441 33.9152 74.1071 36.1772 74.1071 38.5357V44.5829C68.886 45.1446 64.0348 47.5451 60.421 51.3552C56.8072 55.1652 54.6664 60.1364 54.3812 65.38C54.0961 70.6235 55.6853 75.7975 58.8646 79.977C62.044 84.1564 66.6063 87.0688 71.7357 88.1934L89.2131 92.0233C90.6484 92.3293 91.9192 93.1568 92.7796 94.3456C93.64 95.5345 94.0289 97.0002 93.871 98.4592C93.7132 99.9182 93.0198 101.267 91.925 102.244C90.8303 103.221 89.4119 103.758 87.9444 103.75H78.0556C76.8309 103.749 75.6364 103.369 74.6364 102.662C73.6364 101.955 72.8799 100.956 72.4709 99.8016C71.6847 97.5767 70.0469 95.7552 67.9177 94.7379C65.7886 93.7206 63.3425 93.5907 61.1176 94.3769C58.8928 95.1631 57.0713 96.8009 56.054 98.93C55.0367 101.059 54.9068 103.505 55.693 105.73C58.5269 113.722 65.5344 119.769 74.1071 121.204V127.464C74.1071 129.823 75.0441 132.085 76.7118 133.752C78.3795 135.42 80.6415 136.357 83 136.357C85.3585 136.357 87.6205 135.42 89.2882 133.752C90.9559 132.085 91.8929 129.823 91.8929 127.464V121.204C97.32 120.28 102.257 117.499 105.859 113.335C109.46 109.171 111.501 103.885 111.633 98.3814C111.765 92.8779 109.979 87.4998 106.581 83.1686C103.183 78.8374 98.3842 75.8226 93.0074 74.6407L75.5419 70.8227C74.503 70.5881 73.5867 69.9797 72.9674 69.1133C72.348 68.2469 72.0689 67.183 72.1832 66.1241C72.2974 65.0653 72.797 64.0854 73.5869 63.371C74.3767 62.6566 75.4017 62.2576 76.4667 62.25H87.9444C89.1691 62.2507 90.3636 62.6307 91.3636 63.3377C92.3636 64.0447 93.1201 65.0441 93.5291 66.1984C93.9184 67.3001 94.5209 68.3143 95.3021 69.1831C96.0833 70.0519 97.028 70.7583 98.0823 71.2621C99.1365 71.7658 100.28 72.0569 101.446 72.1189C102.613 72.1808 103.781 72.0123 104.882 71.6231C105.984 71.2338 106.998 70.6313 107.867 69.8501C108.736 69.0689 109.442 68.1242 109.946 67.0699C110.45 66.0157 110.741 64.8726 110.803 63.7058C110.865 62.539 110.696 61.3715 110.307 60.2699C108.896 56.283 106.445 52.746 103.207 50.0253C99.9695 47.3046 96.0631 45.4992 91.8929 44.7963V38.5357Z" fill="url(#paint0_linear_36_25)"/>
</g>
<defs>
<linearGradient id="paint0_linear_36_25" x1="83" y1="0" x2="83" y2="166" gradientUnits="userSpaceOnUse">
<stop stop-color="#D5E800"/>
<stop offset="1" stop-color="#26C6DA"/>
</linearGradient>
<clipPath id="clip0_36_25">
<rect width="166" height="166" fill="white"/>
</clipPath>
</defs>
</svg>
