<svg width="108" height="108" viewBox="0 0 108 108" fill="none" xmlns="http://www.w3.org/2000/svg">
<path opacity="0.5" d="M45.7425 21.51L48.0015 23.103C49.7561 24.3427 51.8516 25.0084 54 25.0084C56.1483 25.0084 58.2439 24.3427 59.9985 23.103L62.2575 21.5055C65.4811 19.2242 69.3333 17.9993 73.2825 18H76.0365C77.859 18 79.695 18.1125 81.4095 18.72C92.133 22.527 99.504 36.4275 98.973 67.9635C98.865 74.3175 97.38 81.3375 91.647 84.078C89.6913 85.0183 87.5485 85.5044 85.3785 85.5C82.9395 85.54 80.5435 84.8556 78.4935 83.5335C76.6485 82.3275 75.0285 80.7615 73.4085 79.1955C71.4105 77.2605 69.4125 75.3255 67.0005 74.0745C64.373 72.7107 61.4559 71.9992 58.4955 72H49.5C46.539 72 43.623 72.711 40.995 74.07C38.583 75.3255 36.585 77.2605 34.5825 79.1955C32.9625 80.7615 31.3425 82.3275 29.5065 83.5335C27.4565 84.8556 25.0605 85.54 22.6215 85.5C20.4515 85.5044 18.3087 85.0183 16.353 84.078C10.62 81.3375 9.135 74.313 9.027 67.9635C8.4915 36.4275 15.867 22.527 26.5905 18.72C28.305 18.1125 30.15 18 31.9635 18H34.7175C38.6685 18 42.5205 19.224 45.7425 21.51Z" fill="url(#paint0_linear_36_21)"/>
<path d="M75.375 36C76.2701 36 77.1286 36.3556 77.7615 36.9885C78.3944 37.6215 78.75 38.4799 78.75 39.375C78.75 40.2701 78.3944 41.1285 77.7615 41.7615C77.1286 42.3944 76.2701 42.75 75.375 42.75C74.4799 42.75 73.6214 42.3944 72.9885 41.7615C72.3556 41.1285 72 40.2701 72 39.375C72 38.4799 72.3556 37.6215 72.9885 36.9885C73.6214 36.3556 74.4799 36 75.375 36ZM33.75 37.125C34.6451 37.125 35.5035 37.4806 36.1365 38.1135C36.7694 38.7465 37.125 39.6049 37.125 40.5V43.875H40.5C41.3951 43.875 42.2535 44.2306 42.8865 44.8635C43.5194 45.4965 43.875 46.3549 43.875 47.25C43.875 48.1451 43.5194 49.0035 42.8865 49.6365C42.2535 50.2694 41.3951 50.625 40.5 50.625H37.125V54C37.125 54.8951 36.7694 55.7535 36.1365 56.3865C35.5035 57.0194 34.6451 57.375 33.75 57.375C32.8549 57.375 31.9964 57.0194 31.3635 56.3865C30.7306 55.7535 30.375 54.8951 30.375 54V50.625H27C26.1049 50.625 25.2464 50.2694 24.6135 49.6365C23.9806 49.0035 23.625 48.1451 23.625 47.25C23.625 46.3549 23.9806 45.4965 24.6135 44.8635C25.2464 44.2306 26.1049 43.875 27 43.875H30.375V40.5C30.375 39.6049 30.7306 38.7465 31.3635 38.1135C31.9964 37.4806 32.8549 37.125 33.75 37.125ZM85.5 46.125C85.5 47.0201 85.1444 47.8785 84.5115 48.5115C83.8786 49.1444 83.0201 49.5 82.125 49.5C81.2299 49.5 80.3714 49.1444 79.7385 48.5115C79.1056 47.8785 78.75 47.0201 78.75 46.125C78.75 45.2299 79.1056 44.3715 79.7385 43.7385C80.3714 43.1056 81.2299 42.75 82.125 42.75C83.0201 42.75 83.8786 43.1056 84.5115 43.7385C85.1444 44.3715 85.5 45.2299 85.5 46.125ZM68.625 49.5C69.5201 49.5 70.3785 49.1444 71.0115 48.5115C71.6444 47.8785 72 47.0201 72 46.125C72 45.2299 71.6444 44.3715 71.0115 43.7385C70.3785 43.1056 69.5201 42.75 68.625 42.75C67.7299 42.75 66.8715 43.1056 66.2385 43.7385C65.6056 44.3715 65.25 45.2299 65.25 46.125C65.25 47.0201 65.6056 47.8785 66.2385 48.5115C66.8715 49.1444 67.7299 49.5 68.625 49.5ZM78.75 52.875C78.75 51.9799 78.3944 51.1215 77.7615 50.4885C77.1286 49.8556 76.2701 49.5 75.375 49.5C74.4799 49.5 73.6214 49.8556 72.9885 50.4885C72.3556 51.1215 72 51.9799 72 52.875C72 53.7701 72.3556 54.6285 72.9885 55.2615C73.6214 55.8944 74.4799 56.25 75.375 56.25C76.2701 56.25 77.1286 55.8944 77.7615 55.2615C78.3944 54.6285 78.75 53.7701 78.75 52.875Z" fill="#121212"/>
<defs>
<linearGradient id="paint0_linear_36_21" x1="53.9998" y1="18" x2="53.9998" y2="85.5017" gradientUnits="userSpaceOnUse">
<stop stop-color="#D5E800"/>
<stop offset="1" stop-color="#26C6DA"/>
</linearGradient>
</defs>
</svg>
