<svg width="90" height="68" viewBox="0 0 90 68" fill="none" xmlns="http://www.w3.org/2000/svg">
<path d="M36.7429 3.51L39.0019 5.103C40.7564 6.34272 42.852 7.00836 45.0004 7.00836C47.1487 7.00836 49.2443 6.34272 50.9989 5.103L53.2579 3.5055C56.4815 1.22417 60.3336 -0.000650042 64.2829 2.58818e-07H67.0369C68.8594 2.58818e-07 70.6954 0.1125 72.4099 0.72C83.1334 4.527 90.5044 18.4275 89.9734 49.9635C89.8654 56.3175 88.3804 63.3375 82.6474 66.078C80.6917 67.0182 78.5488 67.5044 76.3789 67.5C73.9399 67.54 71.5438 66.8556 69.4939 65.5335C67.6489 64.3275 66.0289 62.7615 64.4089 61.1955C62.4109 59.2605 60.4129 57.3255 58.0009 56.0745C55.3734 54.7107 52.4562 53.9992 49.4959 54H40.5004C37.5394 54 34.6234 54.711 31.9954 56.07C29.5834 57.3255 27.5854 59.2605 25.5829 61.1955C23.9629 62.7615 22.3429 64.3275 20.5069 65.5335C18.4569 66.8556 16.0609 67.54 13.6219 67.5C11.4519 67.5044 9.30903 67.0182 7.35337 66.078C1.62037 63.3375 0.135366 56.313 0.0273658 49.9635C-0.508134 18.4275 6.86737 4.527 17.5909 0.72C19.3054 0.1125 21.1504 2.58818e-07 22.9639 2.58818e-07H25.7179C29.6689 2.58818e-07 33.5209 1.224 36.7429 3.51Z" fill="url(#paint0_linear_55_13)"/>
<path d="M65.75 15C66.6451 15 67.5036 15.3556 68.1365 15.9885C68.7694 16.6215 69.125 17.4799 69.125 18.375C69.125 19.2701 68.7694 20.1285 68.1365 20.7615C67.5036 21.3944 66.6451 21.75 65.75 21.75C64.8549 21.75 63.9964 21.3944 63.3635 20.7615C62.7306 20.1285 62.375 19.2701 62.375 18.375C62.375 17.4799 62.7306 16.6215 63.3635 15.9885C63.9964 15.3556 64.8549 15 65.75 15ZM24.125 16.125C25.0201 16.125 25.8785 16.4806 26.5115 17.1135C27.1444 17.7465 27.5 18.6049 27.5 19.5V22.875H30.875C31.7701 22.875 32.6285 23.2306 33.2615 23.8635C33.8944 24.4965 34.25 25.3549 34.25 26.25C34.25 27.1451 33.8944 28.0035 33.2615 28.6365C32.6285 29.2694 31.7701 29.625 30.875 29.625H27.5V33C27.5 33.8951 27.1444 34.7535 26.5115 35.3865C25.8785 36.0194 25.0201 36.375 24.125 36.375C23.2299 36.375 22.3714 36.0194 21.7385 35.3865C21.1056 34.7535 20.75 33.8951 20.75 33V29.625H17.375C16.4799 29.625 15.6214 29.2694 14.9885 28.6365C14.3556 28.0035 14 27.1451 14 26.25C14 25.3549 14.3556 24.4965 14.9885 23.8635C15.6214 23.2306 16.4799 22.875 17.375 22.875H20.75V19.5C20.75 18.6049 21.1056 17.7465 21.7385 17.1135C22.3714 16.4806 23.2299 16.125 24.125 16.125ZM75.875 25.125C75.875 26.0201 75.5194 26.8785 74.8865 27.5115C74.2536 28.1444 73.3951 28.5 72.5 28.5C71.6049 28.5 70.7464 28.1444 70.1135 27.5115C69.4806 26.8785 69.125 26.0201 69.125 25.125C69.125 24.2299 69.4806 23.3715 70.1135 22.7385C70.7464 22.1056 71.6049 21.75 72.5 21.75C73.3951 21.75 74.2536 22.1056 74.8865 22.7385C75.5194 23.3715 75.875 24.2299 75.875 25.125ZM59 28.5C59.8951 28.5 60.7535 28.1444 61.3865 27.5115C62.0194 26.8785 62.375 26.0201 62.375 25.125C62.375 24.2299 62.0194 23.3715 61.3865 22.7385C60.7535 22.1056 59.8951 21.75 59 21.75C58.1049 21.75 57.2465 22.1056 56.6135 22.7385C55.9806 23.3715 55.625 24.2299 55.625 25.125C55.625 26.0201 55.9806 26.8785 56.6135 27.5115C57.2465 28.1444 58.1049 28.5 59 28.5ZM69.125 31.875C69.125 30.9799 68.7694 30.1215 68.1365 29.4885C67.5036 28.8556 66.6451 28.5 65.75 28.5C64.8549 28.5 63.9964 28.8556 63.3635 29.4885C62.7306 30.1215 62.375 30.9799 62.375 31.875C62.375 32.7701 62.7306 33.6285 63.3635 34.2615C63.9964 34.8944 64.8549 35.25 65.75 35.25C66.6451 35.25 67.5036 34.8944 68.1365 34.2615C68.7694 33.6285 69.125 32.7701 69.125 31.875Z" fill="#121212"/>
<defs>
<linearGradient id="paint0_linear_55_13" x1="45.0001" y1="0" x2="45.0001" y2="67.5017" gradientUnits="userSpaceOnUse">
<stop stop-color="#D5E800"/>
<stop offset="1" stop-color="#26C6DA"/>
</linearGradient>
</defs>
</svg>
