<svg width="120" height="120" viewBox="0 0 120 120" fill="none" xmlns="http://www.w3.org/2000/svg">
<path d="M89.5145 43.4937L89.5137 43.4932C87.1636 42.0148 84.4421 41.2608 80.7001 40.8812C76.948 40.5006 72.2176 40.5 65.8599 40.5H54.1399C47.7823 40.5 43.0518 40.5006 39.2991 40.8806C35.5565 41.2595 32.8335 42.0123 30.4809 43.4884L89.5145 43.4937ZM89.5145 43.4937C90.7233 44.2508 91.8343 45.1312 92.8481 46.1353L92.8486 46.1357M89.5145 43.4937L92.8486 46.1357M92.8486 46.1357C94.8229 48.0859 96.1767 50.5651 97.3983 54.1242C98.6231 57.6928 99.7007 62.3014 101.148 68.4938L106.258 90.3585L92.8486 46.1357ZM79.8491 98.3353L79.8493 98.3358L80.4488 99.5647C80.4489 99.5649 80.449 99.5651 80.4491 99.5653C81.9414 102.605 84.4999 104.989 87.6371 106.264C90.7745 107.539 94.2712 107.614 97.4609 106.477C100.65 105.339 103.31 103.067 104.932 100.095C106.555 97.1223 107.027 93.6568 106.258 90.3588L79.8491 98.3353ZM79.8491 98.3353C78.4914 95.5595 76.3816 93.2208 73.7598 91.5854C71.1381 89.95 68.1099 89.0837 65.0199 89.085C65.0199 89.085 65.0198 89.085 65.0197 89.085H54.9957C51.9036 89.0802 48.8724 89.9445 46.2477 91.5791C43.623 93.2137 41.5104 95.553 40.1509 98.3302L40.1506 98.3308M79.8491 98.3353L40.1506 98.3308M40.1506 98.3308L39.5508 99.5604C38.0617 102.606 35.503 104.996 32.3634 106.274C29.2237 107.553 25.7232 107.63 22.5302 106.492C19.3373 105.353 16.6756 103.078 15.0535 100.101C13.4315 97.1244 12.9627 93.6546 13.7367 90.3542L13.7368 90.3538M40.1506 98.3308L13.7368 90.3538M13.7368 90.3538L18.8468 68.4838M13.7368 90.3538L18.8468 68.4838M18.8468 68.4838C18.8468 68.4838 18.8468 68.4838 18.8468 68.4838C20.2941 62.2939 21.3717 57.6879 22.5966 54.1205C23.8182 50.5627 25.172 48.0833 27.1465 46.1305M18.8468 68.4838L27.1465 46.1305M27.1465 46.1305C28.1582 45.1309 29.2763 44.245 30.4807 43.4885L27.1465 46.1305Z" fill="url(#paint0_linear_36_20)" stroke="#121212"/>
<path d="M38.75 64.25H39.25V63.75V60C39.25 59.138 39.5924 58.3114 40.2019 57.7019C40.8114 57.0924 41.638 56.75 42.5 56.75C43.362 56.75 44.1886 57.0924 44.7981 57.7019C45.4076 58.3114 45.75 59.138 45.75 60V63.75V64.25H46.25H50C50.862 64.25 51.6886 64.5924 52.2981 65.2019C52.9076 65.8114 53.25 66.638 53.25 67.5C53.25 68.362 52.9076 69.1886 52.2981 69.7981C51.6886 70.4076 50.862 70.75 50 70.75H46.25H45.75V71.25V75C45.75 75.862 45.4076 76.6886 44.7981 77.2981C44.1886 77.9076 43.362 78.25 42.5 78.25C41.638 78.25 40.8114 77.9076 40.2019 77.2981C39.5924 76.6886 39.25 75.862 39.25 75V71.25V70.75H38.75H35C34.138 70.75 33.3114 70.4076 32.7019 69.7981C32.0924 69.1886 31.75 68.362 31.75 67.5C31.75 66.638 32.0924 65.8114 32.7019 65.2019C33.3114 64.5924 34.138 64.25 35 64.25H38.75ZM78.182 63.182C77.3381 64.0259 76.1935 64.5 75 64.5C73.8065 64.5 72.6619 64.0259 71.818 63.182C70.9741 62.3381 70.5 61.1935 70.5 60C70.5 58.8065 70.9741 57.6619 71.818 56.818C72.6619 55.9741 73.8065 55.5 75 55.5C76.1935 55.5 77.3381 55.9741 78.182 56.818C79.0259 57.6619 79.5 58.8065 79.5 60C79.5 61.1935 79.0259 62.3381 78.182 63.182ZM89.5 72.5C89.5 73.6935 89.0259 74.8381 88.182 75.682C87.3381 76.5259 86.1935 77 85 77C83.8065 77 82.6619 76.5259 81.818 75.682C80.9741 74.8381 80.5 73.6935 80.5 72.5C80.5 71.3065 80.9741 70.1619 81.818 69.318C82.6619 68.4741 83.8065 68 85 68C86.1935 68 87.3381 68.4741 88.182 69.318C89.0259 70.1619 89.5 71.3065 89.5 72.5ZM77.2981 17.7019C77.9076 18.3114 78.25 19.138 78.25 20V25C78.25 27.188 77.3808 29.2865 75.8336 30.8336C74.2865 32.3808 72.188 33.25 70 33.25H65C64.5359 33.25 64.0908 33.4344 63.7626 33.7626C63.4344 34.0908 63.25 34.5359 63.25 35V39.5H56.75V35C56.75 32.812 57.6192 30.7135 59.1664 29.1664C60.7135 27.6192 62.812 26.75 65 26.75H70C70.4641 26.75 70.9092 26.5656 71.2374 26.2374C71.5656 25.9092 71.75 25.4641 71.75 25V20C71.75 19.138 72.0924 18.3114 72.7019 17.7019C73.3114 17.0924 74.138 16.75 75 16.75C75.862 16.75 76.6886 17.0924 77.2981 17.7019Z" fill="#121212" stroke="white"/>
<defs>
<linearGradient id="paint0_linear_36_20" x1="59.9952" y1="40" x2="59.9952" y2="107.793" gradientUnits="userSpaceOnUse">
<stop stop-color="#D5E800"/>
<stop offset="1" stop-color="#26C6DA"/>
</linearGradient>
</defs>
</svg>
