<svg width="51" height="51" viewBox="0 0 51 51" fill="none" xmlns="http://www.w3.org/2000/svg">
<g clip-path="url(#clip0_17_27)">
<path d="M22.1706 5.11581C22.0025 5.22549 21.0795 5.82173 20.1224 6.43806C19.1652 7.05439 17.7445 7.96775 16.9647 8.47168C12.0086 11.667 8.64566 13.8313 7.47798 14.5832C6.94493 14.9275 6.50077 15.2221 6.48687 15.2429C6.47297 15.2637 6.51024 15.2995 6.58186 15.3385C6.74717 15.4233 25.4783 23.0421 25.6459 23.0895C25.7192 23.1114 25.8271 23.1263 25.886 23.1222C26.0619 23.1071 25.9477 23.1842 29.2028 20.858C29.9525 20.3196 30.885 19.6537 31.2717 19.3794C31.6575 19.1019 32.4413 18.5434 33.0099 18.1386C33.5777 17.7306 34.8335 16.8358 35.7962 16.1477C36.7589 15.4596 38.1634 14.4575 38.913 13.9191C39.6636 13.3838 40.618 12.7015 41.0349 12.4048C41.4486 12.1091 41.8221 11.8353 41.8631 11.7931C41.9544 11.7061 41.946 11.6551 41.8293 11.5994C41.5691 11.4758 23.1765 4.90254 22.9861 4.86854C22.6991 4.81293 22.5732 4.8501 22.1706 5.11581ZM21.9627 6.74341C22.9721 6.63264 23.838 6.77126 24.504 7.14921C25.4702 7.69574 25.404 8.6036 24.3501 9.23176C23.1968 9.9193 21.3102 10.0117 20.1809 9.43311C18.9968 8.8273 19.2275 7.70726 20.6665 7.08238C20.9528 6.95451 21.6206 6.7842 21.9627 6.74341ZM12.9335 12.583C13.5176 12.4909 14.0104 12.4858 14.5286 12.5667C15.6893 12.7419 16.4469 13.3399 16.3496 14.0065C16.2969 14.3827 16.0012 14.7505 15.5113 15.0486C15.2255 15.2231 14.4295 15.4913 13.9984 15.5584C13.347 15.6604 12.5969 15.6312 12.017 15.4884C11.5879 15.3812 11.0755 15.1049 10.8609 14.8643C10.7214 14.7084 10.6861 14.6453 10.6327 14.4641C10.5025 14.0115 10.7128 13.5922 11.2583 13.2108C11.6967 12.9079 12.3007 12.6796 12.9335 12.583ZM27.8594 9.00133C29.1096 8.78948 30.4335 9.07684 31.0073 9.68571C31.1911 9.87861 31.2971 10.1813 31.2675 10.4205C31.1748 11.2159 29.9337 11.9227 28.4643 12.0256C27.2135 12.1107 26.0764 11.7548 25.6668 11.1476C25.3575 10.6879 25.5147 10.1339 26.0774 9.69737C26.5316 9.34629 27.0711 9.13704 27.8594 9.00133ZM19.2598 14.9948C20.1931 14.8864 21.0655 15.0131 21.7012 15.3566C22.1539 15.6004 22.3045 15.7597 22.4051 16.1007C22.4921 16.3956 22.4749 16.541 22.3306 16.8106C21.8506 17.697 19.9817 18.2684 18.4545 17.9942C18.0001 17.9145 17.7737 17.8377 17.4276 17.6493C17.0275 17.4367 16.8223 17.2167 16.7384 16.9208C16.6263 16.5298 16.755 16.1846 17.138 15.8411C17.5302 15.495 17.9377 15.2913 18.581 15.1282C18.7887 15.0736 19.0949 15.0134 19.2598 14.9948ZM34.1761 11.279C34.7822 11.1937 35.5535 11.2266 36.1021 11.3653C36.499 11.4653 37.0393 11.7568 37.2246 11.9659C37.4166 12.1865 37.5208 12.483 37.4938 12.7314C37.3997 13.5106 36.1595 14.2205 34.7073 14.3249C32.7115 14.4662 31.2679 13.5128 31.8825 12.4599C32.2103 11.8956 33.1063 11.4343 34.1761 11.279ZM25.2066 17.445C26.1602 17.2471 27.3783 17.4021 28.0647 17.8041C28.3845 17.9936 28.5631 18.1914 28.6579 18.4673C28.7594 18.7546 28.7347 18.9656 28.569 19.2416C27.8504 20.4288 25.0818 20.8715 23.6303 20.0273C22.7382 19.5057 22.7282 18.6904 23.6127 18.0655C24.0335 17.771 24.4734 17.5978 25.2066 17.445Z" fill="white"/>
<path d="M5.75661 16.5604C5.75303 16.6049 6.16761 21.305 6.68187 27.0109C7.43741 35.4142 7.62371 37.3931 7.66859 37.4433C7.69573 37.4787 10.6681 38.836 14.2676 40.4625C17.8671 42.089 22.1102 44.0066 23.6948 44.7246C25.2825 45.4418 26.6232 46.0348 26.6735 46.0467C26.7519 46.0636 26.7664 46.056 26.7875 46.0031C26.7969 45.9669 26.8028 45.885 26.7969 45.8199C26.788 45.7558 26.4432 40.975 26.0265 35.2035C25.612 29.4281 25.2628 24.6553 25.2517 24.5951C25.2383 24.5156 25.2048 24.4587 25.1299 24.3973C25.0727 24.3507 24.4618 24.08 23.7702 23.7965C19.7826 22.1676 5.86703 16.5045 5.82074 16.4947C5.7806 16.4832 5.76271 16.5018 5.75661 16.5604Z" fill="#D5E800"/>
<path d="M41.6462 13.617C41.0391 14.0499 40.1512 14.6859 39.674 15.0271C39.1968 15.3682 38.05 16.1908 37.1227 16.8517C36.1994 17.5148 35.2669 18.1807 35.0538 18.3304C34.8408 18.48 33.9113 19.145 32.9849 19.809C32.0607 20.469 30.9856 21.2404 30.5989 21.5148C27.9032 23.4388 26.8999 24.1589 26.7982 24.2557C26.6493 24.3965 26.613 24.4773 26.6153 24.6436C26.6276 25.0474 28.1212 45.633 28.1502 45.788C28.1769 45.9238 28.1936 45.9689 28.2243 45.9599C28.2458 45.9535 28.9918 45.4028 29.8799 44.7334C31.7549 43.322 34.0273 41.6163 37.4699 39.0311C39.2167 37.7176 42.0637 35.582 42.9789 34.8912C43.9221 34.1822 44.1029 34.0253 44.126 33.8882C44.1317 33.8398 44.1078 33.3058 44.0701 32.7025C44.0324 32.0991 43.9807 31.2561 43.956 30.8325C43.9343 30.4081 43.8926 29.7458 43.8735 29.3641C43.8504 28.9802 43.8138 28.3464 43.7898 27.9594C43.7689 27.5715 43.7313 26.9347 43.7073 26.5477C43.6864 26.1598 43.6489 25.523 43.6249 25.136C43.604 24.7481 43.5664 24.1113 43.5424 23.7243C43.5215 23.3364 43.484 22.6996 43.46 22.3126C43.4391 21.9247 43.4015 21.2879 43.3775 20.9009C43.3566 20.513 43.3191 19.8762 43.2951 19.4892C43.2742 19.1013 43.2366 18.4645 43.2126 18.0775C43.1917 17.6896 43.1542 17.0528 43.1302 16.6658C43.1093 16.2779 43.0695 15.6451 43.0465 15.2611C43.0274 14.8794 42.9887 14.2162 42.964 13.7927C42.902 12.7222 42.9073 12.7741 42.8222 12.8026C42.7822 12.8143 42.2524 13.181 41.6462 13.617ZM41.4419 16.7965C41.6988 16.8409 41.9629 17.0001 42.127 17.2055C42.2338 17.341 42.2648 17.412 42.3732 17.7908C42.4874 18.1779 42.4981 18.2482 42.4911 18.5074C42.4564 19.5563 41.9719 20.6877 41.2381 21.4385C41.0047 21.6777 40.5944 21.9624 40.3374 22.0649C39.7392 22.3015 39.1556 22.1464 38.8351 21.6599C38.6867 21.4398 38.549 20.9394 38.5396 20.6016C38.5113 19.4076 39.1586 18.0011 40.0764 17.2628C40.3631 17.0346 40.5314 16.9482 40.8967 16.8505C41.2036 16.7699 41.2585 16.7637 41.4419 16.7965ZM37.1796 26.827C38.1891 26.9767 38.553 28.3689 37.9816 29.8966C37.3755 31.5215 35.9876 32.5688 35.0582 32.1016C34.6936 31.9186 34.5024 31.6444 34.3787 31.1232C34.0581 29.7984 34.8797 27.8962 36.1117 27.102C36.398 26.9174 36.9104 26.7862 37.1796 26.827ZM32.3427 37.2308C32.896 37.2379 33.2697 37.5651 33.4582 38.2042C33.7945 39.3439 33.2418 41.0031 32.2085 41.9726C31.8627 42.295 31.6329 42.4329 31.2426 42.548C30.9231 42.6423 30.8905 42.6452 30.6688 42.6071C30.2718 42.5406 29.9939 42.312 29.7976 41.8956C29.3916 41.0402 29.6884 39.51 30.461 38.4605C31.0548 37.6542 31.7125 37.223 32.3427 37.2308Z" fill="#26C6DA"/>
<path d="M16.5511 35.8149L16.5826 40.4768L22.2357 32.3778L16.5511 35.8149Z" fill="#26C6DA"/>
<path d="M16.4564 21.829L22.2283 31.2886L16.5436 34.7257L10.7694 31.3661" fill="white"/>
<path d="M16.4564 21.829L16.5029 28.713L10.7694 31.3661M10.7768 32.4554L16.551 35.8149L16.5825 40.4769" fill="#8C8C8C"/>
<path d="M16.5031 28.7131L16.5437 34.7257L22.2284 31.2887" fill="#141414"/>
<path d="M10.7695 31.3661L16.503 28.7131L16.5437 34.7257" fill="#26C6DA"/>
</g>
<defs>
<clipPath id="clip0_17_27">
<rect width="40.7822" height="41" fill="white" transform="translate(0 11.5394) rotate(-16.4365)"/>
</clipPath>
</defs>
</svg>
