<svg width="264" height="57" viewBox="0 0 264 57" fill="none" xmlns="http://www.w3.org/2000/svg">
<path d="M14.0625 14.1875H28.125V21.2188H14.0625C9.375 21.2188 7.03125 23.5625 7.03125 28.25V32.9375C7.03125 37.625 9.375 39.9688 14.0625 39.9688H21.0938V34.1094H11.7188V27.0781H28.125V47H14.0625C4.6875 47 0 42.3125 0 32.9375V28.25C0 18.875 4.6875 14.1875 14.0625 14.1875ZM38.6719 28.25V47H31.6406V28.25C31.6406 18.875 36.3281 14.1875 45.7031 14.1875C55.0781 14.1875 59.7656 18.875 59.7656 28.25V47H52.7344V28.25C52.7344 23.5625 50.3906 21.2188 45.7031 21.2188C41.0156 21.2188 38.6719 23.5625 38.6719 28.25ZM50.3906 39.9688H41.0156V32.9375H50.3906V39.9688ZM70.3125 25.9062V47H63.2812V25.9062C63.2812 18.0938 67.1875 14.1875 75 14.1875C78.5312 14.1875 81.2656 14.9844 83.2031 16.5781C85.1406 14.9844 87.875 14.1875 91.4062 14.1875C99.2188 14.1875 103.125 18.0938 103.125 25.9062V47H96.0938V25.9062C96.0938 22.7812 94.5312 21.2188 91.4062 21.2188C88.2812 21.2188 86.7188 22.7812 86.7188 25.9062V47H79.6875V25.9062C79.6875 22.7812 78.125 21.2188 75 21.2188C71.875 21.2188 70.3125 22.7812 70.3125 25.9062ZM120.703 14.1875H134.766V21.2188H120.703C116.016 21.2188 113.672 23.5625 113.672 28.25V32.9375C113.672 37.625 116.016 39.9688 120.703 39.9688H134.766V47H120.703C111.328 47 106.641 42.3125 106.641 32.9375V28.25C106.641 18.875 111.328 14.1875 120.703 14.1875ZM132.422 34.1094H116.016V27.0781H132.422V34.1094Z" fill="#D5E800"/>
<path d="M138.281 47V14.1875H158.789C165.43 14.1875 168.75 17.5078 168.75 24.1484C168.75 26.8516 168.203 29 167.109 30.5938C168.203 32.1875 168.75 34.3359 168.75 37.0391C168.75 43.6797 165.43 47 158.789 47H138.281ZM145.312 21.2188V39.9688H158.789C160.742 39.9688 161.719 38.9922 161.719 37.0391C161.719 35.0859 160.742 34.1094 158.789 34.1094H147.656V27.0781H158.789C160.742 27.0781 161.719 26.1016 161.719 24.1484C161.719 22.1953 160.742 21.2188 158.789 21.2188H145.312ZM180.469 47H173.438V14.1875H180.469V47ZM202.734 47H195.703V23.5625H202.734V47ZM213.281 21.2188H185.156V14.1875H213.281V21.2188Z" fill="#26C6DA"/>
<g clip-path="url(#clip0_17_39)">
<path d="M235.171 10.1158C235.003 10.2255 234.08 10.8217 233.122 11.4381C232.165 12.0544 230.745 12.9678 229.965 13.4717C225.009 16.667 221.646 18.8313 220.478 19.5832C219.945 19.9275 219.501 20.2221 219.487 20.2429C219.473 20.2637 219.51 20.2995 219.582 20.3385C219.747 20.4233 238.478 28.0421 238.646 28.0895C238.719 28.1114 238.827 28.1263 238.886 28.1222C239.062 28.1071 238.948 28.1842 242.203 25.858C242.953 25.3196 243.885 24.6537 244.272 24.3794C244.657 24.1019 245.441 23.5434 246.01 23.1386C246.578 22.7306 247.833 21.8358 248.796 21.1477C249.759 20.4596 251.163 19.4575 251.913 18.9191C252.664 18.3838 253.618 17.7015 254.035 17.4048C254.449 17.1091 254.822 16.8353 254.863 16.7931C254.954 16.7061 254.946 16.6551 254.829 16.5994C254.569 16.4758 236.176 9.90254 235.986 9.86854C235.699 9.81293 235.573 9.8501 235.171 10.1158ZM234.963 11.7434C235.972 11.6326 236.838 11.7713 237.504 12.1492C238.47 12.6957 238.404 13.6036 237.35 14.2318C236.197 14.9193 234.31 15.0117 233.181 14.4331C231.997 13.8273 232.228 12.7073 233.666 12.0824C233.953 11.9545 234.621 11.7842 234.963 11.7434ZM225.934 17.583C226.518 17.4909 227.01 17.4858 227.529 17.5667C228.689 17.7419 229.447 18.3399 229.35 19.0065C229.297 19.3827 229.001 19.7505 228.511 20.0486C228.225 20.2231 227.429 20.4913 226.998 20.5584C226.347 20.6604 225.597 20.6312 225.017 20.4884C224.588 20.3812 224.076 20.1049 223.861 19.8643C223.721 19.7084 223.686 19.6453 223.633 19.4641C223.502 19.0115 223.713 18.5922 224.258 18.2108C224.697 17.9079 225.301 17.6796 225.934 17.583ZM240.859 14.0013C242.11 13.7895 243.434 14.0768 244.007 14.6857C244.191 14.8786 244.297 15.1813 244.267 15.4205C244.175 16.2159 242.934 16.9227 241.464 17.0256C240.214 17.1107 239.076 16.7548 238.667 16.1476C238.358 15.6879 238.515 15.1339 239.077 14.6974C239.532 14.3463 240.071 14.137 240.859 14.0013ZM232.26 19.9948C233.193 19.8864 234.066 20.0131 234.701 20.3566C235.154 20.6004 235.304 20.7597 235.405 21.1007C235.492 21.3956 235.475 21.541 235.331 21.8106C234.851 22.697 232.982 23.2684 231.455 22.9942C231 22.9145 230.774 22.8377 230.428 22.6493C230.027 22.4367 229.822 22.2167 229.738 21.9208C229.626 21.5298 229.755 21.1846 230.138 20.8411C230.53 20.495 230.938 20.2913 231.581 20.1282C231.789 20.0736 232.095 20.0134 232.26 19.9948ZM247.176 16.279C247.782 16.1937 248.554 16.2266 249.102 16.3653C249.499 16.4653 250.039 16.7568 250.225 16.9659C250.417 17.1865 250.521 17.483 250.494 17.7314C250.4 18.5106 249.159 19.2205 247.707 19.3249C245.712 19.4662 244.268 18.5128 244.882 17.4599C245.21 16.8956 246.106 16.4343 247.176 16.279ZM238.207 22.445C239.16 22.2471 240.378 22.4021 241.065 22.8041C241.385 22.9936 241.563 23.1914 241.658 23.4673C241.759 23.7546 241.735 23.9656 241.569 24.2416C240.85 25.4288 238.082 25.8715 236.63 25.0273C235.738 24.5057 235.728 23.6904 236.613 23.0655C237.033 22.771 237.473 22.5978 238.207 22.445Z" fill="white"/>
<path d="M218.757 21.5605C218.753 21.6049 219.168 26.305 219.682 32.011C220.437 40.4143 220.624 42.3931 220.669 42.4433C220.696 42.4787 223.668 43.8361 227.268 45.4626C230.867 47.0891 235.11 49.0066 236.695 49.7247C238.283 50.4418 239.623 51.0349 239.673 51.0467C239.752 51.0637 239.766 51.0561 239.788 51.0031C239.797 50.9669 239.803 50.885 239.797 50.82C239.788 50.7558 239.443 45.975 239.026 40.2036C238.612 34.4281 238.263 29.6553 238.252 29.5951C238.238 29.5156 238.205 29.4587 238.13 29.3973C238.073 29.3507 237.462 29.0801 236.77 28.7965C232.783 27.1676 218.867 21.5045 218.821 21.4948C218.781 21.4832 218.763 21.5019 218.757 21.5605Z" fill="#D5E800"/>
<path d="M254.646 18.617C254.039 19.05 253.151 19.6859 252.674 20.0271C252.197 20.3682 251.05 21.1908 250.123 21.8518C249.199 22.5149 248.267 23.1807 248.054 23.3304C247.841 23.4801 246.911 24.145 245.985 24.809C245.061 25.4691 243.986 26.2404 243.599 26.5148C240.903 28.4388 239.9 29.159 239.798 29.2558C239.649 29.3965 239.613 29.4774 239.615 29.6437C239.628 30.0475 241.121 50.633 241.15 50.7881C241.177 50.9238 241.194 50.969 241.224 50.9599C241.246 50.9536 241.992 50.4028 242.88 49.7334C244.755 48.322 247.027 46.6164 250.47 44.0312C252.217 42.7177 255.064 40.582 255.979 39.8912C256.922 39.1822 257.103 39.0253 257.126 38.8883C257.132 38.8398 257.108 38.3059 257.07 37.7025C257.032 37.0991 256.981 36.2561 256.956 35.8326C256.934 35.4082 256.893 34.7459 256.873 34.3641C256.85 33.9802 256.814 33.3465 256.79 32.9595C256.769 32.5716 256.731 31.9348 256.707 31.5478C256.686 31.1598 256.649 30.523 256.625 30.136C256.604 29.7481 256.566 29.1113 256.542 28.7243C256.522 28.3364 256.484 27.6996 256.46 27.3126C256.439 26.9247 256.402 26.2879 256.378 25.9009C256.357 25.513 256.319 24.8762 256.295 24.4892C256.274 24.1013 256.237 23.4645 256.213 23.0775C256.192 22.6896 256.154 22.0528 256.13 21.6658C256.109 21.2779 256.07 20.6451 256.046 20.2612C256.027 19.8794 255.989 19.2162 255.964 18.7927C255.902 17.7223 255.907 17.7741 255.822 17.8026C255.782 17.8144 255.252 18.1811 254.646 18.617ZM254.442 21.7965C254.699 21.8409 254.963 22.0002 255.127 22.2055C255.234 22.341 255.265 22.412 255.373 22.7908C255.487 23.1779 255.498 23.2482 255.491 23.5075C255.456 24.5563 254.972 25.6878 254.238 26.4386C254.005 26.6777 253.594 26.9624 253.337 27.065C252.739 27.3016 252.156 27.1464 251.835 26.6599C251.687 26.4399 251.549 25.9394 251.54 25.6016C251.511 24.4077 252.159 23.0011 253.076 22.2628C253.363 22.0346 253.531 21.9482 253.897 21.8505C254.204 21.77 254.259 21.7638 254.442 21.7965ZM250.18 31.8271C251.189 31.9768 251.553 33.3689 250.982 34.8967C250.375 36.5215 248.988 37.5688 248.058 37.1016C247.694 36.9186 247.502 36.6444 247.379 36.1232C247.058 34.7984 247.88 32.8963 249.112 32.102C249.398 31.9174 249.91 31.7863 250.18 31.8271ZM245.343 42.2308C245.896 42.2379 246.27 42.5652 246.458 43.2042C246.794 44.344 246.242 46.0032 245.208 46.9726C244.863 47.295 244.633 47.4329 244.243 47.5481C243.923 47.6423 243.891 47.6453 243.669 47.6071C243.272 47.5406 242.994 47.312 242.798 46.8957C242.392 46.0403 242.688 44.51 243.461 43.4606C244.055 42.6542 244.713 42.223 245.343 42.2308Z" fill="#26C6DA"/>
<path d="M229.551 40.8149L229.583 45.4769L235.236 37.3779L229.551 40.8149Z" fill="#26C6DA"/>
<path d="M229.456 26.8291L235.228 36.2887L229.544 39.7257L223.769 36.3661" fill="white"/>
<path d="M229.456 26.8291L229.503 33.7131L223.769 36.3661M223.777 37.4554L229.551 40.8149L229.582 45.4769" fill="#8C8C8C"/>
<path d="M229.503 33.7131L229.544 39.7257L235.228 36.2887" fill="#141414"/>
<path d="M223.77 36.3661L229.503 33.7131L229.544 39.7257" fill="#26C6DA"/>
</g>
<defs>
<clipPath id="clip0_17_39">
<rect width="40.7822" height="41" fill="white" transform="translate(213 16.5394) rotate(-16.4365)"/>
</clipPath>
</defs>
</svg>
